<svg width="18" height="18" viewBox="0 0 18 18" fill="none" xmlns="http://www.w3.org/2000/svg">
<path fill-rule="evenodd" clip-rule="evenodd" d="M9.00068 12.768L8.99091 12.7679C8.89107 12.7664 8.79694 12.7409 8.7139 12.697C8.68587 12.6822 8.65894 12.6652 8.63338 12.6461C8.60314 12.6235 8.57501 12.5983 8.54934 12.5707L6.15691 10.1484C5.91601 9.90375 5.91683 9.5085 6.15856 9.2655C6.40111 9.0225 6.79216 9.0225 7.03306 9.26715L8.38193 10.6334V2.1241C8.38193 1.7796 8.65913 1.5 9.00068 1.5C9.34223 1.5 9.61943 1.7796 9.61943 2.1241V10.6334L10.9683 9.26715C11.2092 9.0225 11.6003 9.0225 11.8428 9.2655C12.0845 9.5085 12.0854 9.90375 11.8444 10.1484L9.45202 12.5707C9.42635 12.5983 9.39821 12.6235 9.36797 12.6461C9.26766 12.7209 9.14418 12.7658 9.01044 12.7679L9.00068 12.768ZM4.40887 16.875H13.5994C15.6115 16.875 17.25 15.2232 17.25 13.1928V9.12862C17.25 7.09405 15.6091 5.43809 13.592 5.43809H12.8231C12.4815 5.43809 12.2043 5.71769 12.2043 6.0622C12.2043 6.4067 12.4815 6.6863 12.8231 6.6863H13.592C14.926 6.6863 16.0125 7.78139 16.0125 9.12862V13.1928C16.0125 14.5342 14.9293 15.6268 13.5994 15.6268H4.40887C3.0732 15.6268 1.9875 14.5317 1.9875 13.1845V9.11947C1.9875 7.77723 3.0699 6.6863 4.40145 6.6863H5.17777C5.51932 6.6863 5.79653 6.4067 5.79653 6.0622C5.79653 5.71769 5.51932 5.43809 5.17777 5.43809H4.40145C2.38762 5.43809 0.75 7.08905 0.75 9.11947V13.1845C0.75 15.2199 2.39175 16.875 4.40887 16.875Z" fill="#443DF6"/>
</svg>
