<svg width="18" height="18" viewBox="0 0 18 18" fill="none" xmlns="http://www.w3.org/2000/svg">
<path fill-rule="evenodd" clip-rule="evenodd" d="M4.875 2.625V3.375V3.75H13.125V3.375V2.625H4.875ZM14.25 3.84451V2.25C14.25 1.83579 13.9142 1.5 13.5 1.5H4.5C4.08579 1.5 3.75 1.83579 3.75 2.25V3.84451C2.45608 4.17755 1.5 5.35212 1.5 6.75V10.5C1.5 11.8979 2.45608 13.0725 3.75 13.4055V12.219C3.08779 11.9296 2.625 11.2689 2.625 10.5V6.75C2.625 5.71447 3.46447 4.875 4.5 4.875H13.5C14.5355 4.875 15.375 5.71447 15.375 6.75V10.5C15.375 11.2689 14.9122 11.9296 14.25 12.219V13.4055C15.5439 13.0725 16.5 11.8979 16.5 10.5V6.75C16.5 5.35212 15.5439 4.17755 14.25 3.84451ZM11.25 10.875H6.75C6.12868 10.875 5.625 11.3787 5.625 12V14.25C5.625 14.8713 6.12868 15.375 6.75 15.375H11.25C11.8713 15.375 12.375 14.8713 12.375 14.25V12C12.375 11.3787 11.8713 10.875 11.25 10.875ZM6.75 9.75C5.50736 9.75 4.5 10.7574 4.5 12V14.25C4.5 15.4926 5.50736 16.5 6.75 16.5H11.25C12.4926 16.5 13.5 15.4926 13.5 14.25V12C13.5 10.7574 12.4926 9.75 11.25 9.75H6.75Z" fill="#443DF6"/>
</svg>
